<?xml version="1.0" encoding="UTF-8" standalone="no" ?>
<!DOCTYPE svg PUBLIC "-//W3C//DTD SVG 1.1//EN" "http://www.w3.org/Graphics/SVG/1.1/DTD/svg11.dtd">
<svg xmlns="http://www.w3.org/2000/svg" xmlns:xlink="http://www.w3.org/1999/xlink" version="1.1" width="1639" height="1152" viewBox="0 0 1639 1152" xml:space="preserve">
<desc>Created with Fabric.js 4.6.0</desc>
<defs>
</defs>
<g transform="matrix(1 0 0 1 185.22 73.35)" id="I8KRh0Q40JdYq5U5rheqk"  >
<linearGradient id="SVGID_110" gradientUnits="userSpaceOnUse" gradientTransform="matrix(1 0 0 1 0 0)"  x1="0" y1="0" x2="217.63224639038907" y2="217.6322463903888">
<stop offset="0%" style="stop-color:#FFBE16;stop-opacity: 1"/>
<stop offset="100%" style="stop-color:#FF1616;stop-opacity: 1"/>
</linearGradient>
<path style="stroke: rgb(116,74,26); stroke-width: 0; stroke-dasharray: none; stroke-linecap: butt; stroke-dashoffset: 0; stroke-linejoin: miter; stroke-miterlimit: 4; fill: url(#SVGID_110); fill-rule: nonzero; opacity: 1;" vector-effect="non-scaling-stroke"  transform=" translate(-108.82, -108.82)" d="M 108.81612 0 C 168.88262 0 217.63224 48.74962 217.63224 108.81612 C 217.63224 168.88262 168.88262 217.63224 108.81612 217.63224 C 48.74962 217.63224 0 168.88262 0 108.81612 C 0 48.74962 48.74962 0 108.81612 0 z" stroke-linecap="round" />
</g>
<g transform="matrix(1 0 0 1 1565.9 942.07)" id="NUqgIkhM8NOxXzcVLuJZA"  >
<linearGradient id="SVGID_187" gradientUnits="userSpaceOnUse" gradientTransform="matrix(1 0 0 1 0 0)"  x1="0" y1="0" x2="217.63224639038907" y2="217.6322463903888">
<stop offset="0%" style="stop-color:#FFBE16;stop-opacity: 1"/>
<stop offset="100%" style="stop-color:#FF1616;stop-opacity: 1"/>
</linearGradient>
<path style="stroke: rgb(116,74,26); stroke-width: 0; stroke-dasharray: none; stroke-linecap: butt; stroke-dashoffset: 0; stroke-linejoin: miter; stroke-miterlimit: 4; fill: url(#SVGID_187); fill-rule: nonzero; opacity: 1;" vector-effect="non-scaling-stroke"  transform=" translate(-108.82, -108.82)" d="M 108.81612 0 C 168.88262 0 217.63224 48.74962 217.63224 108.81612 C 217.63224 168.88262 168.88262 217.63224 108.81612 217.63224 C 48.74962 217.63224 0 168.88262 0 108.81612 C 0 48.74962 48.74962 0 108.81612 0 z" stroke-linecap="round" />
</g>
<g transform="matrix(1.66 0 0 1.66 322.33 377.12)" id="lZ3ug5HmL5CpVmYkN8AIw"  >
<linearGradient id="SVGID_128" gradientUnits="userSpaceOnUse" gradientTransform="matrix(1 0 0 1 -108.82 -108.82)"  x1="0" y1="0" x2="217.63224639038907" y2="217.6322463903888">
<stop offset="0%" style="stop-color:#FFBE16;stop-opacity: 1"/>
<stop offset="100%" style="stop-color:#FF1616;stop-opacity: 1"/>
</linearGradient>
<path style="stroke: rgb(116,74,26); stroke-width: 0; stroke-dasharray: none; stroke-linecap: butt; stroke-dashoffset: 0; stroke-linejoin: miter; stroke-miterlimit: 4; fill: url(#SVGID_128); fill-rule: nonzero; opacity: 1;" vector-effect="non-scaling-stroke"  transform=" translate(0, 0)" d="M 0 -108.81612 C 60.0665 -108.81612 108.81612 -60.0665 108.81612 0 C 108.81612 60.0665 60.0665 108.81612 0 108.81612 C -60.0665 108.81612 -108.81612 60.0665 -108.81612 0 C -108.81612 -60.0665 -60.0665 -108.81612 0 -108.81612 z" stroke-linecap="round" />
</g>
<g transform="matrix(1.66 0 0 1.66 1216.79 877.69)" id="rayYqeT6dosHoe8D1Bs0A"  >
<linearGradient id="SVGID_158" gradientUnits="userSpaceOnUse" gradientTransform="matrix(1 0 0 1 -108.82 -108.82)"  x1="0" y1="0" x2="217.63224639038907" y2="217.6322463903888">
<stop offset="0%" style="stop-color:#FFBE16;stop-opacity: 1"/>
<stop offset="100%" style="stop-color:#FF1616;stop-opacity: 1"/>
</linearGradient>
<path style="stroke: rgb(116,74,26); stroke-width: 0; stroke-dasharray: none; stroke-linecap: butt; stroke-dashoffset: 0; stroke-linejoin: miter; stroke-miterlimit: 4; fill: url(#SVGID_158); fill-rule: nonzero; opacity: 1;" vector-effect="non-scaling-stroke"  transform=" translate(0, 0)" d="M 0 -108.81612 C 60.0665 -108.81612 108.81612 -60.0665 108.81612 0 C 108.81612 60.0665 60.0665 108.81612 0 108.81612 C -60.0665 108.81612 -108.81612 60.0665 -108.81612 0 C -108.81612 -60.0665 -60.0665 -108.81612 0 -108.81612 z" stroke-linecap="round" />
</g>
<g transform="matrix(2.41 0 0 2.41 724.83 704.06)" id="M2jLBE6zZLZ5_I5fDmj7A"  >
<linearGradient id="SVGID_142" gradientUnits="userSpaceOnUse" gradientTransform="matrix(1 0 0 1 -108.82 -108.82)"  x1="0" y1="0" x2="217.63224639038907" y2="217.6322463903888">
<stop offset="0%" style="stop-color:#FFBE16;stop-opacity: 1"/>
<stop offset="100%" style="stop-color:#FF1616;stop-opacity: 1"/>
</linearGradient>
<path style="stroke: rgb(116,74,26); stroke-width: 0; stroke-dasharray: none; stroke-linecap: butt; stroke-dashoffset: 0; stroke-linejoin: miter; stroke-miterlimit: 4; fill: url(#SVGID_142); fill-rule: nonzero; opacity: 1;" vector-effect="non-scaling-stroke"  transform=" translate(0, 0)" d="M 0 -108.81612 C 60.0665 -108.81612 108.81612 -60.0665 108.81612 0 C 108.81612 60.0665 60.0665 108.81612 0 108.81612 C -60.0665 108.81612 -108.81612 60.0665 -108.81612 0 C -108.81612 -60.0665 -60.0665 -108.81612 0 -108.81612 z" stroke-linecap="round" />
</g>
</svg>