<?xml version="1.0" encoding="UTF-8" standalone="no" ?>
<!DOCTYPE svg PUBLIC "-//W3C//DTD SVG 1.1//EN" "http://www.w3.org/Graphics/SVG/1.1/DTD/svg11.dtd">
<svg xmlns="http://www.w3.org/2000/svg" xmlns:xlink="http://www.w3.org/1999/xlink" version="1.1" width="640" height="640" viewBox="0 0 640 640" xml:space="preserve">
<desc>Created with Fabric.js 4.6.0</desc>
<defs>
</defs>
<g transform="matrix(1.87 1.87 -0.36 0.36 320 320)" id="ZLydI12cu2PB3xzcy9go4"  >
<path style="stroke: rgb(157,62,108); stroke-width: 0; stroke-dasharray: none; stroke-linecap: butt; stroke-dashoffset: 0; stroke-linejoin: miter; stroke-miterlimit: 4; fill: rgb(255,255,255); fill-rule: nonzero; opacity: 1;" vector-effect="non-scaling-stroke"  transform=" translate(0, 0)" d="M -97.85124 -16.60581 C -97.85124 -61.476420000000005 -90.82706 -97.85123 -82.16229 -97.85123 L 82.16229 -97.85123 L 82.16229 -97.85123 C 90.82706 -97.85123 97.85124 -61.47641 97.85124 -16.605810000000005 L 97.85124 16.605819999999994 L 97.85124 16.605819999999994 C 97.85124 61.47642999999999 90.82706 97.85123999999999 82.16229 97.85123999999999 L -82.16229 97.85123999999999 L -82.16229 97.85123999999999 C -90.82706 97.85123999999999 -97.85124 61.47641999999999 -97.85124 16.605819999999994 z" stroke-linecap="round" />
</g>
<g transform="matrix(1.87 -1.87 0.36 0.36 320 320)" id="uCpoLo8wTD7wKdNKXpixW"  >
<path style="stroke: rgb(157,62,108); stroke-width: 0; stroke-dasharray: none; stroke-linecap: butt; stroke-dashoffset: 0; stroke-linejoin: miter; stroke-miterlimit: 4; fill: rgb(255,255,255); fill-rule: nonzero; opacity: 1;" vector-effect="non-scaling-stroke"  transform=" translate(0, 0)" d="M -97.85124 -16.60582 C -97.85124 -61.47643 -90.83736 -97.85123999999999 -82.18529000000001 -97.85123999999999 L 82.18529999999998 -97.85123999999999 L 82.18529999999998 -97.85123999999999 C 90.83735999999999 -97.85123999999999 97.85124999999998 -61.47642999999999 97.85124999999998 -16.605819999999994 L 97.85124999999998 16.60582000000001 L 97.85124999999998 16.60582000000001 C 97.85124999999998 61.47643000000001 90.83736999999998 97.85124 82.18529999999998 97.85124 L -82.18529000000001 97.85124 L -82.18529000000001 97.85124 C -90.83735000000001 97.85124 -97.85124 61.47643000000001 -97.85124 16.60582000000001 z" stroke-linecap="round" />
</g>
</svg>