<?xml version="1.0" encoding="UTF-8" standalone="no" ?>
<!DOCTYPE svg PUBLIC "-//W3C//DTD SVG 1.1//EN" "http://www.w3.org/Graphics/SVG/1.1/DTD/svg11.dtd">
<svg xmlns="http://www.w3.org/2000/svg" xmlns:xlink="http://www.w3.org/1999/xlink" version="1.1" width="640" height="640" viewBox="0 0 640 640" xml:space="preserve">
<desc>Created with Fabric.js 4.6.0</desc>
<defs>
</defs>
<g transform="matrix(2.93 0 0 2.93 320 320)" id="xRvZ1d7tRJLQSPdygUqEC"  >
<linearGradient id="SVGID_310" gradientUnits="userSpaceOnUse" gradientTransform="matrix(1 0 0 1 -102.48 -102.48)"  x1="102.47934286455383" y1="102.47934290557414" x2="103.1568922381037" y2="101.80179353229549">
<stop offset="0%" style="stop-color:#FFFFFF;stop-opacity: 0.1843137254901961"/>
<stop offset="100%" style="stop-color:#FFFFFF;stop-opacity: 0.23921568627450981"/>
</linearGradient>
<path style="stroke: rgb(178,100,233); stroke-width: 0; stroke-dasharray: none; stroke-linecap: butt; stroke-dashoffset: 0; stroke-linejoin: miter; stroke-miterlimit: 4; fill: url(#SVGID_310); fill-rule: nonzero; opacity: 1;" vector-effect="non-scaling-stroke"  transform=" translate(0, 0)" d="M -102.47934 -72.48412 C -102.47934 -89.05002 -89.05001999999999 -102.47934000000001 -72.48411999999999 -102.47934000000001 L 72.67233000000002 -102.47934000000001 L 72.67233000000002 -102.47934000000001 C 89.13429000000002 -102.47934000000001 102.47934000000001 -89.13429000000001 102.47934000000001 -72.67233000000002 L 102.47934000000001 72.48411999999999 L 102.47934000000001 72.48411999999999 C 102.47934000000001 89.05001999999999 89.05002 102.47934 72.48412 102.47934 L -72.48412 102.47934 L -72.48412 102.47934 C -89.05002 102.47934 -102.47934000000001 89.05001999999999 -102.47934000000001 72.48411999999999 z" stroke-linecap="round" />
</g>
<g transform="matrix(20.05 0 0 19.96 320 320)" id="uV4gEXxL1Drbf_epBy1b1"  >
<path style="stroke: none; stroke-width: 1; stroke-dasharray: none; stroke-linecap: butt; stroke-dashoffset: 0; stroke-linejoin: miter; stroke-miterlimit: 4; fill: rgb(255,255,255); fill-rule: nonzero; opacity: 1;" vector-effect="non-scaling-stroke"  transform=" translate(-12, -12)" d="M 0.057 24 L 1.744 17.837 C 0.7030000000000001 16.033 0.15599999999999992 13.988 0.15700000000000003 11.891 C 0.16000000000000003 5.335 5.495 0 12.05 0 C 15.231000000000002 0.001 18.217 1.24 20.463 3.488 C 22.708000000000002 5.736000000000001 23.944000000000003 8.724 23.943 11.902 C 23.94 18.459 18.605 23.793999999999997 12.05 23.793999999999997 C 10.06 23.792999999999996 8.099 23.293999999999997 6.362000000000001 22.345999999999997 L 0.05700000000000127 23.999999999999996 z M 6.654000000000001 20.193 C 8.33 21.188000000000002 9.93 21.784000000000002 12.046000000000001 21.785 C 17.494 21.785 21.932000000000002 17.351 21.935000000000002 11.9 C 21.937 6.438000000000001 17.520000000000003 2.01 12.054000000000002 2.008000000000001 C 6.602000000000002 2.008000000000001 2.1670000000000016 6.442000000000001 2.1650000000000027 11.892000000000001 C 2.164000000000003 14.117 2.8160000000000025 15.783000000000001 3.9110000000000027 17.526000000000003 L 2.9120000000000026 21.174000000000003 L 6.654000000000003 20.193 z M 18.041 14.729000000000001 C 17.967 14.605 17.769000000000002 14.531 17.471 14.382000000000001 C 17.174 14.233000000000002 15.713000000000001 13.514000000000001 15.44 13.415000000000001 C 15.168 13.316 14.969999999999999 13.266000000000002 14.770999999999999 13.564 C 14.572999999999999 13.861 14.002999999999998 14.531 13.829999999999998 14.729 C 13.656999999999998 14.927 13.482999999999999 14.952 13.185999999999998 14.802999999999999 C 12.888999999999998 14.654 11.930999999999997 14.341 10.795999999999998 13.328 C 9.912999999999997 12.54 9.315999999999997 11.567 9.142999999999997 11.268999999999998 C 8.969999999999997 10.971999999999998 9.124999999999996 10.810999999999998 9.272999999999998 10.662999999999998 C 9.406999999999998 10.529999999999998 9.569999999999999 10.315999999999999 9.718999999999998 10.141999999999998 C 9.869999999999997 9.969999999999997 9.918999999999997 9.845999999999998 10.018999999999998 9.646999999999998 C 10.117999999999999 9.448999999999998 10.068999999999999 9.274999999999999 9.993999999999998 9.125999999999998 C 9.918999999999999 8.977999999999998 9.324999999999998 7.514999999999998 9.077999999999998 6.919999999999998 C 8.835999999999999 6.340999999999998 8.590999999999998 6.418999999999998 8.408999999999997 6.409999999999998 L 7.838999999999997 6.399999999999999 C 7.6409999999999965 6.399999999999999 7.318999999999997 6.473999999999998 7.046999999999997 6.7719999999999985 C 6.774999999999997 7.0699999999999985 6.006999999999997 7.7879999999999985 6.006999999999997 9.250999999999998 C 6.006999999999997 10.713999999999997 7.071999999999997 12.126999999999997 7.219999999999997 12.324999999999998 C 7.368999999999997 12.522999999999998 9.314999999999998 15.524999999999999 12.295999999999996 16.811999999999998 C 13.004999999999995 17.118 13.558999999999996 17.301 13.989999999999995 17.438 C 14.701999999999995 17.663999999999998 15.349999999999994 17.631999999999998 15.861999999999995 17.555999999999997 C 16.432999999999996 17.470999999999997 17.619999999999994 16.836999999999996 17.867999999999995 16.142999999999997 C 18.115999999999996 15.447999999999997 18.115999999999996 14.852999999999998 18.040999999999993 14.728999999999997 z" stroke-linecap="round" />
</g>
</svg>